<mxfile host="app.diagrams.net" modified="2022-04-01T01:55:06.256Z" agent="5.0 (Windows NT 10.0; Win64; x64) AppleWebKit/537.36 (KHTML, like Gecko) Chrome/99.0.4844.84 Safari/537.36" etag="3PZ56Q4lD3FKKVltUcVz" version="17.4.0" type="github">
  <diagram id="XY5f5YIMCV_Xuf4AxkW1" name="Page-1">
    <mxGraphModel dx="652" dy="1068" grid="0" gridSize="10" guides="1" tooltips="1" connect="1" arrows="1" fold="1" page="0" pageScale="1" pageWidth="850" pageHeight="1100" math="0" shadow="0">
      <root>
        <mxCell id="0" />
        <mxCell id="1" parent="0" />
        <mxCell id="lOvZxBPrjOYZhu3ocBPl-1" value="Kasir" style="rounded=0;whiteSpace=wrap;html=1;hachureGap=4;" vertex="1" parent="1">
          <mxGeometry x="27" y="-55" width="102" height="37" as="geometry" />
        </mxCell>
        <mxCell id="lOvZxBPrjOYZhu3ocBPl-3" value="customer" style="rounded=0;whiteSpace=wrap;html=1;hachureGap=4;" vertex="1" parent="1">
          <mxGeometry x="166" y="-126" width="160" height="80" as="geometry" />
        </mxCell>
        <mxCell id="lOvZxBPrjOYZhu3ocBPl-4" value="" style="rounded=0;whiteSpace=wrap;html=1;hachureGap=4;" vertex="1" parent="1">
          <mxGeometry x="126" y="148" width="160" height="80" as="geometry" />
        </mxCell>
      </root>
    </mxGraphModel>
  </diagram>
</mxfile>
